<svg width="320" height="103" viewBox="0 0 320 103" fill="none" xmlns="http://www.w3.org/2000/svg">
<path d="M102.02 26.9762C102.02 26.9762 137.225 0 188.438 0C238.681 0 227.884 26.9762 227.884 26.9762L201.338 26.9222C201.338 26.9222 213.726 10.4766 180.965 10.4766C136.089 10.4766 102.084 26.9762 102.084 26.9762H102.02Z" fill="#FF9C00"/>
<path d="M224.956 76.0237C224.956 76.0237 189.756 103 138.561 103C88.3228 103 99.1154 76.0237 99.1154 76.0237L125.661 76.0776C125.661 76.0776 113.278 92.5282 146.043 92.5282C190.914 92.5282 224.924 76.0237 224.924 76.0237H224.956Z" fill="#1A2C4B"/>
<path d="M21.9167 50.8379C20.8289 50.4166 19.7152 50.0774 18.5836 49.8226C17.3818 49.5547 16.162 49.3907 14.9359 49.3321C13.6957 49.2536 12.5011 49.1703 11.3657 49.082C10.2304 48.9937 9.13149 48.8907 8.10102 48.7779C5.68898 48.5081 5.41085 47.1642 5.41085 46.1784C5.39693 45.7456 5.52619 45.3215 5.77562 44.9816C6.06293 44.6085 6.42236 44.3072 6.82889 44.0987C7.32931 43.8451 7.85577 43.6558 8.3974 43.5347C8.99471 43.4023 9.60113 43.2993 10.1939 43.2306C10.7866 43.1619 11.3703 43.1178 11.9129 43.108C12.4555 43.0982 12.9205 43.108 13.2807 43.108C14.8043 43.1036 16.3234 43.2863 17.8084 43.6524C19.1886 43.9946 20.5219 44.5271 21.7753 45.2366L22.0261 45.3789L25.6738 42.6126L25.1312 42.181C23.4122 40.9428 21.5183 40.012 19.5229 39.4245C17.49 38.8184 15.3902 38.5115 13.2807 38.5122C12.5877 38.5122 11.808 38.5465 10.9599 38.6103C10.0825 38.6801 9.21002 38.8079 8.34724 38.9929C7.46593 39.1821 6.59993 39.4462 5.75738 39.7825C4.93651 40.1032 4.16729 40.56 3.47757 41.1363C2.80311 41.7044 2.24439 42.4156 1.83611 43.2257C1.39851 44.1338 1.18054 45.1459 1.20232 46.1685C1.20232 49.2831 2.34679 51.3087 4.59924 52.1867C6.84519 53.054 9.20038 53.5501 11.5846 53.6581C12.8385 53.7317 14.0376 53.82 15.1502 53.9132C16.2627 54.0064 17.357 54.1143 18.4058 54.232C20.8178 54.4968 21.0959 55.8309 21.0959 56.807C21.111 57.2452 20.98 57.6749 20.7266 58.0184C20.4346 58.3936 20.0706 58.6965 19.6596 58.9062C19.1583 59.1639 18.6302 59.3566 18.0866 59.4801C17.4951 59.6213 16.8969 59.7277 16.2946 59.7989C15.6973 59.8675 15.1274 59.9019 14.5985 59.9117H13.2807C11.761 59.9144 10.2457 59.7367 8.76217 59.382C7.36411 59.0506 6.01642 58.509 4.75882 57.7732L4.50804 57.6555L0.860352 60.4414L1.38927 60.8387C3.03195 62.045 4.84602 62.9561 6.76049 63.5363C8.88012 64.1919 11.0752 64.5222 13.2807 64.5173C13.9647 64.5173 14.7398 64.4878 15.5834 64.429C16.4596 64.3686 17.331 64.2441 18.1915 64.0562C19.065 63.8722 19.9223 63.608 20.754 63.2665C21.5746 62.9454 22.3438 62.4887 23.0338 61.9128C23.7085 61.3442 24.2698 60.6353 24.6843 59.8283C25.1311 58.9139 25.3584 57.8939 25.3455 56.8609C25.3318 53.7611 24.1828 51.7453 21.9167 50.8379Z" fill="#1A2C4B"/>
<path d="M63.5004 56.9394V64.4927H60.9242V56.9394L53.1729 45.0601H56.3327L62.2191 54.0897L68.0646 45.0601H71.2563L63.5004 56.9394Z" fill="#1A2C4B"/>
<path d="M114.568 45.0601H117.158V64.4927H114.568L101.669 49.1899V64.4927H99.0928V45.0601H101.669L114.568 60.3629V45.0601Z" fill="#1A2C4B"/>
<path d="M154.688 45.06C155.547 45.0571 156.402 45.1758 157.232 45.4132C158.027 45.6374 158.793 45.9669 159.512 46.3941C160.223 46.8185 160.886 47.3304 161.486 47.9195C162.075 48.4996 162.592 49.159 163.023 49.8814L160.743 51.2204C160.424 50.7185 160.051 50.2591 159.631 49.852C159.196 49.4299 158.714 49.069 158.194 48.7778C157.662 48.4746 157.097 48.244 156.512 48.0912C155.906 47.9312 155.285 47.8505 154.661 47.8508C152.812 47.8433 151.025 48.5718 149.645 49.8961C149.003 50.5126 148.482 51.2615 148.113 52.0984C147.742 52.9415 147.549 53.8629 147.549 54.796C147.549 55.729 147.742 56.6505 148.113 57.4936C148.483 58.3312 149.004 59.0815 149.645 59.7007C151.027 61.0208 152.813 61.7472 154.661 61.7411C155.292 61.7424 155.922 61.66 156.535 61.4959C157.691 61.1834 158.758 60.5723 159.644 59.7155C160.067 59.3037 160.441 58.8375 160.757 58.3274L163.037 59.6566C162.616 60.3788 162.108 61.0384 161.528 61.6185C160.934 62.2151 160.274 62.7307 159.562 63.1537C158.063 64.0383 156.38 64.4991 154.67 64.4927C152.132 64.5454 149.675 63.5239 147.83 61.6479C146.928 60.7892 146.208 59.7313 145.721 58.5463C145.233 57.3613 144.988 56.0771 145.003 54.7813C144.994 53.4864 145.241 52.2042 145.729 51.0201C146.216 49.8361 146.933 48.7774 147.83 47.9146C148.743 46.9775 149.819 46.243 150.995 45.7532C152.172 45.2634 153.427 45.0279 154.688 45.06Z" fill="#1A2C4B"/>
<path d="M204.693 59.9462V38.5271H200.471V64.4929H224.605V59.9462H204.693Z" fill="#1A2C4B"/>
<path d="M257.211 60.3285L255.314 64.5025H252.433L261.328 45.0698H264.192L273.069 64.4927H270.201L268.309 60.3285H257.211ZM262.751 48.1991L258.479 57.5475H267.01L262.751 48.1991Z" fill="#1A2C4B"/>
<path d="M301.061 45.0602H313.955C314.64 45.0557 315.317 45.2061 315.944 45.5016C317.185 46.0803 318.176 47.1444 318.716 48.4788C318.99 49.1546 319.13 49.8847 319.126 50.6222C319.135 51.4134 318.982 52.197 318.678 52.9175C318.373 53.638 317.926 54.2776 317.366 54.7912C318.186 55.549 318.76 56.5676 319.006 57.6998C319.252 58.8319 319.157 60.0189 318.734 61.0889C318.468 61.7456 318.093 62.3442 317.626 62.8546C317.154 63.3659 316.593 63.7726 315.975 64.0514C315.344 64.3459 314.662 64.4963 313.974 64.4928H301.061V45.0602ZM303.619 47.8461V53.3933H313.937C314.281 53.3934 314.621 53.3166 314.936 53.1677C315.548 52.8799 316.036 52.3544 316.304 51.6963C316.44 51.359 316.51 50.9949 316.509 50.6271C316.511 50.2591 316.441 49.8948 316.304 49.5578C316.17 49.23 315.979 48.9321 315.743 48.6799C315.515 48.426 315.246 48.2183 314.949 48.0668C314.636 47.9175 314.298 47.8406 313.955 47.8412L303.619 47.8461ZM313.937 56.1842H303.619V61.7412H313.937C314.281 61.7437 314.622 61.6667 314.936 61.5156C315.242 61.3749 315.52 61.1698 315.752 60.9123C315.988 60.6567 316.176 60.3555 316.308 60.0246C316.444 59.6869 316.513 59.323 316.513 58.9553C316.513 58.5876 316.444 58.2238 316.308 57.8861C316.173 57.5592 315.982 57.2617 315.747 57.0082C315.51 56.7581 315.234 56.554 314.931 56.4049C314.625 56.2531 314.293 56.1712 313.955 56.1645L313.937 56.1842Z" fill="#1A2C4B"/>
</svg>
